<svg id="Capa_1" data-name="Capa 1" xmlns="http://www.w3.org/2000/svg" viewBox="0 0 727 268"><defs><style>.cls-1{fill:#fff;}</style></defs><polygon class="cls-1" points="648.9 73.99 237.74 73.99 233.39 69.82 648.9 69.82 648.9 73.99"/><polygon class="cls-1" points="649 191.19 231.01 191.27 235.31 187.02 649 187.02 649 191.19"/><rect class="cls-1" x="260.48" y="128.22" width="383.65" height="2.59"/><path class="cls-1" d="M297.93,143.64c-1.78-.35-3.33-.64-4.66-.88s-2.74-.43-4.25-.61a37.65,37.65,0,0,0-4.15-.26,13.17,13.17,0,0,0-10.54,4.54q-3.75,4.53-3.75,12.5,0,8.19,3.82,12.49t11.19,4.31h.65a4.37,4.37,0,0,0,.72-.06q.36-.06.72-.09a5.08,5.08,0,0,0,.79-.14V161.89l9.24-.06V177.3c-1.15.19-2.33.37-3.53.52s-2.43.29-3.68.41l-3.76.23c-1.25.08-2.55.12-3.89.12q-10.39,0-16.31-5t-5.85-13.89q0-9.48,6.5-15.06T284.58,139q3.39,0,6.85.35c1.11.12,2.19.26,3.25.41s2.14.35,3.25.58Z"/><path class="cls-1" d="M327.23,175.09h17.24l-.5,2.67-25.76.06V139.68h9Z"/><path class="cls-1" d="M364.32,144.62q5.91-5.46,16.38-5.46,10,0,15.66,5.12t5.77,14q0,9.42-6.06,14.88t-16.38,5.46q-9.88,0-15.59-5.11t-5.77-14Q358.26,150.15,364.32,144.62Zm7,1.63q-2.9,4.13-2.89,12.62t2.89,12.67a9.88,9.88,0,0,0,8.66,4.24q6.13,0,9.09-4.18a14.32,14.32,0,0,0,2.24-5.23,37,37,0,0,0,.79-7.5q0-8.55-3-12.73T380,142A9.84,9.84,0,0,0,371.32,146.25Z"/><path class="cls-1" d="M442,140.09a11.37,11.37,0,0,1,4,1.16,9,9,0,0,1,3.47,3.08,7.24,7.24,0,0,1,1.22,4.13,8,8,0,0,1-3,6.28,16.07,16.07,0,0,1-8.23,3.26,16.58,16.58,0,0,1,9.89,2.84,8.07,8.07,0,0,1,3.75,6.81,8.17,8.17,0,0,1-4.47,7.5q-4.47,2.61-13.06,2.61l-14.94.06V139.68H434.1A51.74,51.74,0,0,1,442,140.09Zm-12.27,16.74h3a8.69,8.69,0,0,0,6.07-1.92,6.83,6.83,0,0,0,2.16-5.4,8.26,8.26,0,0,0-.43-3.17,6.23,6.23,0,0,0-1.45-2.3,7.81,7.81,0,0,0-5.62-1.86h-3.76Zm0,18.37h3.9a11.35,11.35,0,0,0,7.07-2,6.93,6.93,0,0,0,2.6-5.7,7,7,0,0,0-2.74-6c-1.78-1.36-4.53-2-8.23-2h-2.6Z"/><path class="cls-1" d="M507.42,177.82h-10a4.24,4.24,0,0,0-.28-1q-.3-.78-.69-1.74c-.27-.64-.52-1.28-.76-1.92s-.43-1.12-.58-1.43l-.07-.17-3.32-8.6H478.48l-3.6,8.31c-.1.23-.28.7-.55,1.39s-.55,1.43-.86,2.18-.61,1.44-.9,2-.51.9-.65.9H466.5c.05-.08.27-.53.65-1.37l1.27-2.7q.68-1.45,1.26-2.67c.38-.82.58-1.24.58-1.28l14.36-29.36,6-1.45ZM479.49,160.2h11.19l-5.34-13.66Z"/><path class="cls-1" d="M533,175.09h17.25l-.51,2.67-25.76.06V139.68h9Z"/><path class="cls-1" d="M594.31,142.42h-18v14.5h17.1l-.43,2.73H576.34v15.44h19.27l-.8,2.67-27.49.06V139.74H595.1Z"/><path class="cls-1" d="M640.28,143.64c-1.64-.35-3.06-.64-4.26-.88s-2.52-.43-3.93-.61a32.87,32.87,0,0,0-3.86-.26,10.08,10.08,0,0,0-5.71,1.51,4.79,4.79,0,0,0-2.16,4,3.86,3.86,0,0,0,1.15,2.84,22.41,22.41,0,0,0,5.49,3.38l6.28,3.13a20.3,20.3,0,0,1,6.64,4.71,8.63,8.63,0,0,1,1.94,5.64,9.27,9.27,0,0,1-4.33,8.26q-4.18,2.79-12.62,2.79c-1,0-1.94,0-2.93-.09s-2-.16-3.06-.32-2.07-.33-3.18-.52-2.26-.45-3.46-.76v-3.89q2.73.87,4.76,1.39c1.35.35,2.81.67,4.4,1a24.71,24.71,0,0,0,4.4.44,9.7,9.7,0,0,0,5.78-1.57,4.88,4.88,0,0,0,2.23-4.19,4.41,4.41,0,0,0-1.22-3.08,17.77,17.77,0,0,0-4.69-3.25L621,159.62a34.84,34.84,0,0,1-3.61-2.26,13.94,13.94,0,0,1-2.52-2.33,8.79,8.79,0,0,1-1.74-5.52,8.48,8.48,0,0,1,4.26-7.73q4.26-2.75,12.27-2.74c.82,0,1.67,0,2.56.09l2.63.2a47.38,47.38,0,0,1,5.42.7Z"/><path class="cls-1" d="M284.7,87.74c-1.39-.34-2.61-.62-3.63-.85s-2.15-.43-3.36-.6a22.7,22.7,0,0,0-3.3-.26,7.62,7.62,0,0,0-4.87,1.49,4.88,4.88,0,0,0-1.85,3.94,4.15,4.15,0,0,0,1,2.81,19.11,19.11,0,0,0,4.69,3.31l5.36,3.09a17.65,17.65,0,0,1,5.68,4.64,9.32,9.32,0,0,1,1.66,5.55,9.56,9.56,0,0,1-3.7,8.12q-3.57,2.74-10.79,2.75c-.82,0-1.66,0-2.5-.09a25.59,25.59,0,0,1-2.62-.32c-.86-.15-1.77-.32-2.71-.51s-1.93-.44-3-.74v-3.84c1.56.58,2.92,1,4.07,1.38s2.4.65,3.76.94a18.07,18.07,0,0,0,3.76.43,7.43,7.43,0,0,0,4.93-1.55,5,5,0,0,0,1.92-4.11,4.74,4.74,0,0,0-1.05-3,15.59,15.59,0,0,0-4-3.2l-5.92-3.6a31.42,31.42,0,0,1-3.08-2.23A12.44,12.44,0,0,1,263,99a9.6,9.6,0,0,1-1.48-5.44,8.71,8.71,0,0,1,3.64-7.61q3.63-2.68,10.48-2.68c.7,0,1.43,0,2.19.08l2.25.2a34.7,34.7,0,0,1,4.62.69Z"/><path class="cls-1" d="M301.54,88.72q5.06-5.39,14-5.38,8.52,0,13.38,5t4.94,13.79q0,9.27-5.18,14.65t-14,5.37q-8.44,0-13.32-5t-4.93-13.79Q296.36,94.15,301.54,88.72Zm6,1.6q-2.47,4.07-2.47,12.41t2.47,12.47a8.12,8.12,0,0,0,7.4,4.18,8.49,8.49,0,0,0,7.77-4.12,15.25,15.25,0,0,0,1.91-5.15,42.22,42.22,0,0,0,.68-7.38q0-8.4-2.59-12.53a8.5,8.5,0,0,0-7.77-4.11A8.11,8.11,0,0,0,307.52,90.32Z"/><path class="cls-1" d="M354.32,118.69h14.73l-.43,2.63-22,.06V83.85h7.71Z"/><path class="cls-1" d="M387.49,108.91q0,5.67,2,8c1.32,1.56,3.54,2.35,6.66,2.35a12.79,12.79,0,0,0,5.37-1,6.28,6.28,0,0,0,3.14-3,8.4,8.4,0,0,0,.74-2.17,26.45,26.45,0,0,0,.19-3.72V83.85h4.93v25.06c0,1.11,0,2.07-.09,2.89s-.14,1.5-.22,2a11.14,11.14,0,0,1-1.05,2.92,9.62,9.62,0,0,1-5.18,4.06,24.17,24.17,0,0,1-9,1.43q-7.95,0-11.53-2.75t-3.58-9V83.85h7.65Z"/><path class="cls-1" d="M453,87.69c-1.44-.35-2.7-.63-3.79-.86s-2.26-.43-3.51-.6a25.88,25.88,0,0,0-3.43-.26,9.23,9.23,0,0,0-4.71,1.12,10.7,10.7,0,0,0-3.49,3.4q-2.9,4.52-3,12.41,0,7.56,3,12.07a10.8,10.8,0,0,0,3.36,3.29,8.83,8.83,0,0,0,4.6,1.12,26.34,26.34,0,0,0,3.67-.29c1.33-.19,2.56-.41,3.69-.65s2.48-.57,4-1l-.92,3.49-3.15.52c-1,.15-1.95.28-2.89.4l-2.41.2c-.74.05-1.42.08-2,.08q-9.57,0-14.49-4.75t-4.94-13.84q0-9.61,5.49-14.93t15.42-5.43c.74,0,1.49,0,2.25.08l2.37.2c.78.08,1.58.19,2.41.34s1.66.35,2.52.58Z"/><path class="cls-1" d="M472.83,121.38h-7.71V83.85h7.71Z"/><path class="cls-1" d="M490.59,88.72q5.06-5.39,14-5.38,8.52,0,13.38,5t4.94,13.79q0,9.27-5.18,14.65t-14,5.37q-8.45,0-13.32-5t-4.93-13.79Q485.41,94.15,490.59,88.72Zm6,1.6q-2.47,4.07-2.47,12.41t2.47,12.47a8.12,8.12,0,0,0,7.4,4.18,8.49,8.49,0,0,0,7.77-4.12,15.25,15.25,0,0,0,1.91-5.15,41.36,41.36,0,0,0,.67-7.38q0-8.4-2.58-12.53A8.5,8.5,0,0,0,504,86.09,8.11,8.11,0,0,0,496.57,90.32Z"/><path class="cls-1" d="M562.05,109.83v-26h4.07v37.76H561.5L539.67,93v28.43h-4V83.85h6.78Z"/><path class="cls-1" d="M604.35,86.54H589v14.28h14.61l-.37,2.68H589v15.19h16.46l-.68,2.63-23.49.06V83.91H605Z"/><path class="cls-1" d="M640.42,87.74c-1.4-.34-2.61-.62-3.64-.85s-2.15-.43-3.36-.6a22.49,22.49,0,0,0-3.3-.26,7.64,7.64,0,0,0-4.87,1.49,4.91,4.91,0,0,0-1.85,3.94,4.16,4.16,0,0,0,1,2.81,19,19,0,0,0,4.68,3.31l5.37,3.09a17.48,17.48,0,0,1,5.67,4.64,9.33,9.33,0,0,1,1.67,5.55,9.59,9.59,0,0,1-3.7,8.12q-3.58,2.74-10.79,2.75c-.83,0-1.66,0-2.5-.09a25.25,25.25,0,0,1-2.62-.32c-.87-.15-1.77-.32-2.72-.51s-1.93-.44-3-.74v-3.84c1.56.58,2.91,1,4.06,1.38s2.41.65,3.77.94a18,18,0,0,0,3.76.43,7.44,7.44,0,0,0,4.93-1.55,5,5,0,0,0,1.91-4.11,4.74,4.74,0,0,0-1-3,15.5,15.5,0,0,0-4-3.2l-5.92-3.6a31.65,31.65,0,0,1-3.09-2.23A12.71,12.71,0,0,1,618.72,99a9.6,9.6,0,0,1-1.48-5.44,8.7,8.7,0,0,1,3.63-7.61q3.64-2.68,10.49-2.68c.69,0,1.42,0,2.18.08l2.26.2a34.94,34.94,0,0,1,4.62.69Z"/><path class="cls-1" d="M484.1,200.25a.76.76,0,0,1,.44-.26.57.57,0,0,1,.33.07c.13.07.2.14.22.23s0,.17-.15.27-1.69,1.34-1.73,1.44l-.15,0S483.88,200.5,484.1,200.25Z"/><path class="cls-1" d="M113.23,76.89C100,87,95.85,92.07,94.62,95.74c-1,3.08,4.89,2.21,4.89,2.21l-8.64,3.28L91,95.32l1.45-2.57a74.36,74.36,0,0,1,13.25-12.48c10.8-8.17,9.45-5.78,8.74-4.65A5.7,5.7,0,0,1,113.23,76.89Z"/><path class="cls-1" d="M101.2,108.14c-10.89,8.9-12.59,10.77-12.92,13.48-.4,3.23,6.92,2.8,6.92,2.8l-10.41,3.76-.08-7.4.4-.84s.1-1.9,8.94-8.6c10.79-8.17,9.56-6,8.84-4.83A8.7,8.7,0,0,1,101.2,108.14Z"/><path class="cls-1" d="M164.26,50.11c46.93,3.86,77.22,33.37,77.22,77.4S205.75,206,161.73,206.2c-7.1,0-18.11-1.44-25.33-4.13-1.74-.65-6.82-2.48-8.08-3.18a26.14,26.14,0,0,1-4.53-2.76c-1-.85-.41-.89-.41-.89l2.5,1.1A83.54,83.54,0,0,0,156.14,202c44,0,79.71-33.72,79.71-75.3s-35.69-75.3-79.71-75.3l-5,.06s-3.22-.42,2.23-1A48.35,48.35,0,0,1,164.26,50.11Z"/><path class="cls-1" d="M92.5,92.72a35.15,35.15,0,0,0-5,10.69c-1.31,5.55,12.83,1.12,18-1a211.9,211.9,0,0,0,48.11-28.9s2.19-2,2.59-3.43c.7-2.38.44-2.78-.93-1.65-2.95,2.41-7.43,5.38-7.43,5.38-17,10.93-33.34,19-38.37,21s-19.55,6.61-18.24,1.06A13.58,13.58,0,0,1,92.5,92.72Z"/><path class="cls-1" d="M85.36,119.37s-2.29,2.26-1.34,8.7c.83,5.63,12.39,4,17.78,2.72,6.61-1.52,39-11.15,73.21-41.62,0,0,4.7-4.34,5-6.81.32-3,.77-4.28-1.17-2.18-4.13,4.47-6.78,6-9.79,8.54-7,5.84-21.7,14.77-21.7,14.77-17.61,9.87-36.5,17.62-41.77,18.93-14.17,3.52-22.08,3-20.44-2.49"/><path class="cls-1" d="M197.94,193.44c2-16.85,1.84-27.27-.68-43.53-7.34-47.45-58.78-86.56-58.78-86.56S137,62,140,62.49s49.75,31,61,76.76c3.41,13.91,5.11,25.68,3.89,49.79"/><path class="cls-1" d="M220.42,206.41s.75,34.64-58,36.52c0,0-2.43-.08-3.14-.69s1.66-1.25,3.83-1.44,52.38-2.69,51-34.39l3.06-3.38Z"/><path class="cls-1" d="M205.27,179s-.19,7.26,5.73,2.32-8.68,8.78-8.68,8.78Z"/><path class="cls-1" d="M198.9,183.77s-.5,7.17-8.57,10.93,12-2.36,12-2.36Z"/><path class="cls-1" d="M162,85.34s4.86,4.69,1.1,7.87c-2.62,2.22,5.35-2.59,5.35-2.59Z"/><path class="cls-1" d="M166.24,82.7s4.4,4.79,7.34,2.43L170,89.88Z"/><path class="cls-1" d="M176.66,87.51s-2.76,3.1-.71,5.54-3.84-2.94-3.84-2.94Z"/><path class="cls-1" d="M165.71,97s3.52-3.49,6.19,0-.78-4.83-.78-4.83H169Z"/><path class="cls-1" d="M155.85,70.83s-1.15,1.29.71,3.14c1.29,1.29-3.19-1.71-3.19-1.71Z"/><path class="cls-1" d="M150,68.8s2.37,1.91,4.08.58-1.39,2.74-1.39,2.74Z"/><path class="cls-1" d="M145.41,69.12s4.16,3.5,1.45,5.33c-2.12,1.43,3.27-1.33,3.27-1.33l-.41-1.37Z"/><path class="cls-1" d="M148.59,77.43s2.92-2.45,5.75,0c2.35,2-1.5-3.35-1.5-3.35l-1.9.08Z"/><path class="cls-1" d="M224.94,166.4c-2.52-94-70.36-107.7-70.36-107.7s-5-1.29-3.86-1.9,3.42,0,5.14.31,45.71,9.15,64.08,54.36c12.19,30,10.29,49.21,10.29,49.21"/><path class="cls-1" d="M224.57,158.64s-.07,7.46-3.41,11.59,5.35-3.83,5.35-3.83l.66-4.21Z"/><path class="cls-1" d="M229.41,145.43s.92,7.44,3.11,2.84-2.78,9.35-2.78,9.35Z"/><path class="cls-1" d="M187.29,120.62s1.77,4.79-1.34,6,6.4,0,6.4,0l-1.91-3.82Z"/><path class="cls-1" d="M192.35,116.84s2.36,4.09,5.32,2.53-3,4.44-3,4.44l-2.93-3.49Z"/><path class="cls-1" d="M221.18,83.11s1.83,2,.61,4.1l2.72-.15-.18-2.81Z"/><path class="cls-1" d="M225.58,94.17s1.26-2.73,2.85.71L227,90.49Z"/><path class="cls-1" d="M234.12,111a7.2,7.2,0,0,1-.56,4.59l2.09-2.45Z"/><path class="cls-1" d="M234,128.21s2-3.59,1.77,1.39l2-4L236.06,124Z"/><path class="cls-1" d="M225.08,126s1,3.43,2.54.8l-.84,2.8-.92.85-1.1-2.23Z"/><path class="cls-1" d="M229.24,135.09a5,5,0,0,0-.82,4.44l-2.5-3.76Z"/><path class="cls-1" d="M223.22,145.87s-.26-3-2.19-1l1.95-3.58.83,4.62Z"/><path class="cls-1" d="M220.9,133.51s.76,2.34-.66,3.8l2.32-1.27Z"/><path class="cls-1" d="M107.76,200.42s53.11,40.87,105.49.9c0,0,6.41-5.68,7.1.26a26.67,26.67,0,0,1,.06,5.56s-1-4.95-7.34.07-47.06,36.65-104.25-1c-1.71-1.13-4.79-3.76-4.55-6.82C104.43,197.36,107.76,200.42,107.76,200.42Z"/><path class="cls-1" d="M223.78,82.7s-13.87,35.91-41.44,45.37c0,0-2.05.55-.9,1.69s5.28,1.62,6.36,1.06c.93-.48,21.44-6.45,40.39-41.25Z"/><path class="cls-1" d="M235,112.18s-12.15,32.51-38.78,44.36c0,0-4.71,1.56-3.57,2.7s5.29,1.62,6.37,1.06c.93-.48,21.43-6.45,40.38-41.25Z"/><path class="cls-1" d="M189.05,130.33a2.58,2.58,0,0,1,3.3,1.5l-.42-3.16-2.23.12Z"/><path class="cls-1" d="M197.71,128.67a3.2,3.2,0,0,1,1.43-4l-4.21,2Z"/><path class="cls-1" d="M196.9,160.54a1.74,1.74,0,0,1,1.9,1.62l.26-2.25Z"/><path class="cls-1" d="M204.66,159.85s-.28-1.92,1-2.71l-2,.52Z"/><path class="cls-1" d="M203.32,150s.56,2.32,2.2,1.3l-2,1.95Z"/><path class="cls-1" d="M197.66,152.59s.55,3.22-1.54,4h3.14Z"/><path class="cls-1" d="M212.68,112.18s.83-1,1.51.68l.12-1.73-1.21-.38Z"/><path class="cls-1" d="M218.11,107.24a1.91,1.91,0,0,1,.19-2l-1.54,1.5Z"/><path class="cls-1" d="M213.66,98.86s.84,1.45,1.58.18l-.29,1.59-.66.28Z"/><path class="cls-1" d="M209.56,103.34a3.22,3.22,0,0,1-.4,4.27l2.67-1.06.14-2.18Z"/><path class="cls-1" d="M113,212.06c.7-2.78-3-2.14-3-2.14s-2.33.46-.72,2.7c1.33,1.85,3.08,1.88,3.7-.56"/><polygon class="cls-1" points="112.12 209.83 112.66 210.37 112.34 210.38 112.12 209.83"/><polygon class="cls-1" points="109.16 212.58 109.61 213.03 109.83 212.8 109.16 212.58"/><path class="cls-1" d="M112.44,211.51c.7-2.79-3-2.14-3-2.14s-2.32.46-.71,2.7c1.33,1.85,3.08,1.88,3.7-.56"/><path class="cls-1" d="M116.78,223c.71-2.78-3-2.14-3-2.14s-2.32.46-.72,2.7c1.33,1.85,3.08,1.88,3.7-.56"/><polygon class="cls-1" points="115.91 220.72 116.45 221.26 116.13 221.27 115.91 220.72"/><polygon class="cls-1" points="112.95 223.47 113.41 223.92 113.62 223.69 112.95 223.47"/><path class="cls-1" d="M116.23,222.4c.71-2.78-3-2.14-3-2.14s-2.32.46-.72,2.7c1.33,1.85,3.08,1.88,3.7-.56"/><path class="cls-1" d="M132.12,229.4c0-2.87-3.42-1.35-3.42-1.35s-2.14,1,0,2.79c1.74,1.48,3.45,1.08,3.46-1.44"/><polygon class="cls-1" points="130.73 227.45 131.38 227.85 131.07 227.93 130.73 227.45"/><polygon class="cls-1" points="128.52 230.84 129.07 231.16 129.23 230.89 128.52 230.84"/><path class="cls-1" d="M131.45,229c0-2.87-3.42-1.35-3.42-1.35s-2.14,1,0,2.79c1.74,1.48,3.45,1.08,3.46-1.44"/><path class="cls-1" d="M148.18,233.39c-.33-2.86-3.55-.94-3.55-.94s-2,1.26.3,2.78c1.9,1.25,3.54.66,3.25-1.84"/><polygon class="cls-1" points="146.57 231.61 147.27 231.93 146.97 232.05 146.57 231.61"/><polygon class="cls-1" points="144.78 235.24 145.37 235.49 145.49 235.21 144.78 235.24"/><path class="cls-1" d="M147.47,233.07c-.33-2.85-3.55-.94-3.55-.94s-2,1.26.29,2.78c1.9,1.26,3.55.66,3.26-1.84"/><path class="cls-1" d="M156.93,227.33c-.75-2.77-3.66-.41-3.66-.41s-1.8,1.54.7,2.71c2.06,1,3.6.14,3-2.3"/><polygon class="cls-1" points="155.08 225.81 155.81 226.02 155.53 226.19 155.08 225.81"/><polygon class="cls-1" points="153.83 229.66 154.45 229.82 154.53 229.52 153.83 229.66"/><path class="cls-1" d="M156.18,227.12c-.75-2.77-3.66-.41-3.66-.41s-1.8,1.54.7,2.71c2.06,1,3.6.13,3-2.3"/><path class="cls-1" d="M164.14,233.77c-1-2.69-3.67-.06-3.67-.06s-1.65,1.7.95,2.63c2.14.77,3.6-.2,2.72-2.57"/><polygon class="cls-1" points="162.16 232.44 162.91 232.58 162.65 232.76 162.16 232.44"/><polygon class="cls-1" points="161.28 236.38 161.91 236.49 161.96 236.18 161.28 236.38"/><path class="cls-1" d="M163.38,233.63c-1-2.69-3.68-.06-3.68-.06s-1.64,1.7,1,2.63c2.15.77,3.6-.2,2.73-2.57"/><path class="cls-1" d="M171.75,227.45c-1.45-2.48-3.63.56-3.63.56s-1.33,2,1.39,2.43c2.24.39,3.51-.82,2.24-3"/><polygon class="cls-1" points="169.57 226.47 170.33 226.48 170.11 226.71 169.57 226.47"/><polygon class="cls-1" points="169.38 230.5 170.02 230.5 170.02 230.19 169.38 230.5"/><path class="cls-1" d="M171,227.44c-1.45-2.48-3.63.57-3.63.57s-1.33,2,1.39,2.43c2.24.38,3.51-.83,2.24-3"/><path class="cls-1" d="M179.88,232.6c-1.71-2.3-3.54,1-3.54,1s-1.1,2.1,1.65,2.26c2.27.13,3.4-1.21,1.89-3.23"/><polygon class="cls-1" points="177.6 231.87 178.37 231.8 178.17 232.05 177.6 231.87"/><polygon class="cls-1" points="177.87 235.91 178.51 235.83 178.47 235.53 177.87 235.91"/><path class="cls-1" d="M179.11,232.68c-1.72-2.3-3.55,1-3.55,1s-1.1,2.1,1.65,2.26c2.28.13,3.4-1.21,1.9-3.23"/><path class="cls-1" d="M186.06,225.26c-1.71-2.3-3.54,1-3.54,1s-1.1,2.09,1.65,2.26c2.27.13,3.4-1.21,1.89-3.23"/><polygon class="cls-1" points="183.78 224.53 184.54 224.46 184.35 224.71 183.78 224.53"/><polygon class="cls-1" points="184.05 228.56 184.69 228.49 184.65 228.18 184.05 228.56"/><path class="cls-1" d="M185.29,225.34c-1.72-2.3-3.55,1-3.55,1s-1.1,2.09,1.65,2.26c2.28.13,3.4-1.21,1.9-3.23"/><path class="cls-1" d="M193.9,229.67c-1.72-2.31-3.55,1-3.55,1s-1.1,2.1,1.65,2.26c2.27.14,3.4-1.2,1.9-3.22"/><polygon class="cls-1" points="191.62 228.94 192.38 228.86 192.18 229.12 191.62 228.94"/><polygon class="cls-1" points="191.88 232.97 192.52 232.9 192.48 232.59 191.88 232.97"/><path class="cls-1" d="M193.12,229.75c-1.72-2.3-3.54,1-3.54,1s-1.11,2.1,1.65,2.26c2.27.14,3.4-1.2,1.89-3.22"/><path class="cls-1" d="M198.92,221.16c-1.72-2.3-3.55,1-3.55,1s-1.1,2.09,1.65,2.26c2.27.13,3.4-1.21,1.9-3.23"/><polygon class="cls-1" points="196.63 220.43 197.4 220.35 197.2 220.61 196.63 220.43"/><polygon class="cls-1" points="196.9 224.46 197.54 224.39 197.5 224.08 196.9 224.46"/><path class="cls-1" d="M198.14,221.24c-1.72-2.3-3.55,1-3.55,1s-1.1,2.09,1.65,2.26c2.28.13,3.4-1.21,1.9-3.23"/><path class="cls-1" d="M209.68,214.73c-1.71-2.3-3.54,1-3.54,1s-1.1,2.1,1.65,2.26c2.27.14,3.4-1.21,1.89-3.23"/><polygon class="cls-1" points="207.4 214.01 208.16 213.93 207.97 214.18 207.4 214.01"/><polygon class="cls-1" points="207.67 218.04 208.31 217.97 208.27 217.66 207.67 218.04"/><path class="cls-1" d="M208.91,214.81c-1.72-2.3-3.55,1-3.55,1s-1.1,2.1,1.65,2.26c2.28.14,3.4-1.2,1.9-3.23"/><path class="cls-1" d="M126.18,219.22c0-2.87-3.43-1.32-3.43-1.32s-2.13,1,0,2.8c1.75,1.45,3.45,1,3.44-1.48"/><polygon class="cls-1" points="124.77 217.28 125.43 217.67 125.12 217.76 124.77 217.28"/><polygon class="cls-1" points="122.6 220.69 123.16 221.01 123.31 220.74 122.6 220.69"/><path class="cls-1" d="M125.51,218.83c0-2.87-3.43-1.32-3.43-1.32s-2.13,1,0,2.79c1.75,1.46,3.45,1,3.44-1.47"/><path class="cls-1" d="M141.06,224.14c-.48-2.83-3.59-.75-3.59-.75s-1.94,1.36.43,2.76c2,1.15,3.58.47,3.16-2"/><polygon class="cls-1" points="139.37 222.45 140.08 222.73 139.79 222.87 139.37 222.45"/><polygon class="cls-1" points="137.76 226.16 138.36 226.39 138.47 226.1 137.76 226.16"/><path class="cls-1" d="M140.34,223.86c-.49-2.83-3.6-.76-3.6-.76s-1.94,1.37.44,2.77c2,1.15,3.57.47,3.16-2"/><path class="cls-1" d="M222.16,86.18s3-4.47.12-7.9-25.22-30.11-71.16-26.86c0,0,33-3.31,59.84,20.57a97.1,97.1,0,0,1,9.27,10S222.39,84.31,222.16,86.18Z"/><path class="cls-1" d="M226.05,93.49s3-5.79,4.77-2.33,5.48,13.59,5.61,16-2.45,7.55-2.45,7.55a9.11,9.11,0,0,0-.08-4.53S230.61,99,228.45,94.93C228.45,94.93,227.36,92.23,226.05,93.49Z"/><path class="cls-1" d="M231.32,149.75a5.23,5.23,0,0,0,4.48-3.8c2-5.36,2.71-14.79,2.79-18,.12-4.83-3.61-.88-3.61-.88s.74-.47.8,1.41a86.31,86.31,0,0,1-1,10.66c-.45,2.55-2.15,10-3.43,10.65"/><path class="cls-1" d="M224.53,159.48s1.45,9-1.61,12.91-8.89,11.14-11.36,11.75a5.1,5.1,0,0,1-5.49-1.93,2.14,2.14,0,0,0,2.9.4c1.9-1,6-5,8.85-8.3s4.8-6.06,5.43-8.12A34.16,34.16,0,0,0,224.53,159.48Z"/><path class="cls-1" d="M124.33,195.66c25.63,12.25,53.19,7,64.08,3.29s10.37-13.59,10.37-13.59-2,6.51-10.08,10a93,93,0,0,1-23.58,6.12c-4.49.41-18.49,2.14-38.65-4.92"/><path class="cls-1" d="M161,120.44s5.51-4,9.94,8.67c4.58,13.09,11.17,43.89,9.14,51.48S169,189.31,162,189.85c0,0,14.32-1.75,14-11.13s-5.26-40.29-10.82-50.65c0,0-2.51-5.64-8.21-5.15Z"/><path class="cls-1" d="M116.66,186.53c-.72,1.85-6.79-1-10.92-4.47S91.18,166,89.22,158.53l-1-5.72,7.71-1.28s-6.83,1.46-.16,12.23a64.61,64.61,0,0,0,12.11,15.42C115.59,186.28,117,185.67,116.66,186.53Z"/><path class="cls-1" d="M128.57,189.85s36.6,5.31,46.81-2.59c4.5-3.49,5.32-7.2,5-10.65,0,0-.46,4.64-9,8-9.36,3.7-29.58,3-34.8,2.86C130.69,187.36,126.13,188.91,128.57,189.85Z"/><path class="cls-1" d="M161.28,120.2S122,145.71,95.71,146.69c0,0-9.41.87-8.27,5.23s1.11,5.51,2.25,8.08c0,0-2.88-7.23,4.33-7.6,8.16-.43,31.77-.36,64.9-24.49,0,0,7.75-5,11.07-1.13,0,0-1.93-5.33-5.39-6.71A3.79,3.79,0,0,0,161.28,120.2Z"/></svg>